<svg xmlns="http://www.w3.org/2000/svg" width="24" height="24" viewBox="0 0 24 24" fill="none" color="currentColor" stroke="currentColor" stroke-width="1.8" stroke-linecap="round" stroke-linejoin="round">
  <path d="M12 8.8a3.2 3.2 0 1 0 0 6.4 3.2 3.2 0 0 0 0-6.4Z"/>
  <path d="m19.1 13.6 1.2 1-.9 1.7-1.6-.4a6.9 6.9 0 0 1-1.3 1.3l.3 1.7-1.8.8-1-1.3a7 7 0 0 1-1.9 0l-1 1.3-1.8-.8.3-1.7a6.9 6.9 0 0 1-1.3-1.3l-1.6.4-.9-1.7 1.2-1a7.2 7.2 0 0 1 0-1.9l-1.2-1 .9-1.7 1.6.4A6.9 6.9 0 0 1 9 8.1l-.3-1.7 1.8-.8 1 1.3a7 7 0 0 1 1.9 0l1-1.3 1.8.8-.3 1.7a6.9 6.9 0 0 1 1.3 1.3l1.6-.4.9 1.7-1.2 1a7.2 7.2 0 0 1 0 1.9Z"/>
</svg>
